# xmcd
#
# Track frame offsets:
# 150
# 15412
# 29490
# 39165
# 51832
# 63167
# 76435
# 86260
# 99675
# 115947
# 127415
# 144415
# 155540
# 165272
#
# Disc length: 2375 seconds
#
#
# Revision: 0
# Processed by: cddbd v1.5.1PL2 Copyright (c) Steve Scherf et al.
# Submitted via: FreeRIP 2.945 
#
DISCID=ab09450e
DTITLE=Various Artist - Country Greatest CD03
DYEAR=1993
DGENRE=Country
TTITLE0=Billi Jo Spears - Blanket on the ground
TTITLE1=David Allan Coe - Ride me down easy
TTITLE2=Leroy van Dyke - Honeycomb
TTITLE3=Johnny Cash - Folsom prison blues
TTITLE4=Patsy Cline - I've loved and lost again
TTITLE5=Alabama - Patches
TTITLE6=Hank Locklin - please help me I'm falling
TTITLE7=Patti Page - Tennessee waltz
TTITLE8=Burrito Brothers - Take a message to Mary
TTITLE9=George Jones - White lightning
TTITLE10=Lynn Anderson - Blue bayou
TTITLE11=Don Gibson - Oh lonesome me
TTITLE12=Ned Miller - From a jack to a king
TTITLE13=Faron Young - It's four in the morning
EXTD=
EXTT0=
EXTT1=
EXTT2=
EXTT3=
EXTT4=
EXTT5=
EXTT6=
EXTT7=
EXTT8=
EXTT9=
EXTT10=
EXTT11=
EXTT12=
EXTT13=
PLAYORDER=
